<?xml version="1.0" encoding="UTF-8" standalone="no"?>
<!-- Generator: Adobe Illustrator 18.0.0, SVG Export Plug-In . SVG Version: 6.00 Build 0)  -->

<svg
   xmlns:dc="http://purl.org/dc/elements/1.1/"
   xmlns:cc="http://creativecommons.org/ns#"
   xmlns:rdf="http://www.w3.org/1999/02/22-rdf-syntax-ns#"
   xmlns:svg="http://www.w3.org/2000/svg"
   xmlns="http://www.w3.org/2000/svg"
   xmlns:sodipodi="http://sodipodi.sourceforge.net/DTD/sodipodi-0.dtd"
   xmlns:inkscape="http://www.inkscape.org/namespaces/inkscape"
   version="1.1"
   id="Capa_1"
   x="0px"
   y="0px"
   viewBox="0 0 58 58"
   style="enable-background:new 0 0 58 58;"
   xml:space="preserve"
   inkscape:version="0.91 r13725"
   sodipodi:docname="gderacz.svg"><metadata
     id="metadata47"><rdf:RDF><cc:Work
         rdf:about=""><dc:format>image/svg+xml</dc:format><dc:type
           rdf:resource="http://purl.org/dc/dcmitype/StillImage" /><dc:title></dc:title></cc:Work></rdf:RDF></metadata><defs
     id="defs45" /><sodipodi:namedview
     pagecolor="#ffffff"
     bordercolor="#666666"
     borderopacity="1"
     objecttolerance="10"
     gridtolerance="10"
     guidetolerance="10"
     inkscape:pageopacity="0"
     inkscape:pageshadow="2"
     inkscape:window-width="1462"
     inkscape:window-height="914"
     id="namedview43"
     showgrid="false"
     inkscape:zoom="16.275862"
     inkscape:cx="28.034978"
     inkscape:cy="30.876892"
     inkscape:window-x="0"
     inkscape:window-y="1"
     inkscape:window-maximized="0"
     inkscape:current-layer="Capa_1" /><g
     id="g3"
     transform="matrix(0.41101695,0,0,0.41101695,-19.04661,-23.347458)"><path
       style="fill:#049cff"
       d="m 23.936,54.07 c 0.539,-0.12 0.879,-0.654 0.76,-1.193 -0.121,-0.539 -0.663,-0.874 -1.193,-0.759 l -7.252,1.614 c -0.003,-0.002 -0.007,-0.003 -0.01,-0.005 l -0.171,0.045 -0.326,0.073 c -0.027,0.006 -0.047,0.024 -0.073,0.032 L 0,58 4.988,43.037 C 2.457,38.78 1,33.812 1,28.5 1,12.76 13.76,0 29.5,0 45.24,0 58,12.76 58,28.5 58,44.24 45.24,57 29.5,57 25.897,57 22.452,56.327 19.279,55.106 l 4.657,-1.036 z"
       id="path5"
       inkscape:connector-curvature="0" /><path
       style="fill:#ffffff"
       d="m 30,22 -14,0 c -0.552,0 -1,-0.448 -1,-1 0,-0.552 0.448,-1 1,-1 l 14,0 c 0.552,0 1,0.448 1,1 0,0.552 -0.448,1 -1,1 z"
       id="path7"
       inkscape:connector-curvature="0" /><path
       style="fill:#ffffff"
       d="m 43,30 -27,0 c -0.552,0 -1,-0.448 -1,-1 0,-0.552 0.448,-1 1,-1 l 27,0 c 0.552,0 1,0.448 1,1 0,0.552 -0.448,1 -1,1 z"
       id="path9"
       inkscape:connector-curvature="0" /><path
       style="fill:#ffffff"
       d="m 43,38 -27,0 c -0.552,0 -1,-0.448 -1,-1 0,-0.552 0.448,-1 1,-1 l 27,0 c 0.552,0 1,0.448 1,1 0,0.552 -0.448,1 -1,1 z"
       id="path11"
       inkscape:connector-curvature="0" /></g><g
     id="g13" /><g
     id="g15" /><g
     id="g17" /><g
     id="g19" /><g
     id="g21" /><g
     id="g23" /><g
     id="g25" /><g
     id="g27" /><g
     id="g29" /><g
     id="g31" /><g
     id="g33" /><g
     id="g35" /><g
     id="g37" /><g
     id="g39" /><g
     id="g41" /><g
     id="g4648"><path
       inkscape:connector-curvature="0"
       style="fill:#333333"
       d="m 27.039956,44.290235 -1.574467,-6.740801 c 0,0 5.384976,-5.182712 4.778182,-11.819678 -0.601387,-6.642452 -7.292974,-10.813761 -14.088475,-9.004193 -6.7900162,1.809568 -7.9162261,7.249246 -7.9490623,8.145841 -0.032836,0.891109 0.8036519,3.176365 0.2022646,4.734454 -0.6013873,1.558089 -2.7662704,4.001881 -2.5640058,4.728968 0.2022646,0.727087 2.0610476,0.852866 2.0610476,0.852866 0,0 0.021864,0.705223 -0.2241289,0.852867 -0.2459932,0.147644 -0.1093215,0.738059 0.3006936,1.060617 0.4045292,0.328044 1.0824813,0.546687 1.0824813,0.546687 0,0 -0.7817876,0.174914 -0.6778726,0.727087 0.098429,0.552173 0.3772585,0.831002 0.956702,0.852866 0.579523,0.02735 0.7325735,-0.251479 0.8310025,0.04922 0.09843,0.300693 0.164022,0.328044 0.164022,0.328044 0,0 -0.5795235,1.497982 -0.07657,2.602328 0.502958,1.104345 1.284746,1.109831 2.186827,0.880216 0.907487,-0.224129 2.66792,-0.727087 2.66792,-0.727087 l 0.481094,2.454684 c 0.437366,3.121665 -1.36131,4.914855 -1.858783,5.346734 5.210063,-0.202264 9.922653,-2.367227 13.410604,-5.773127 -0.06011,-0.0547 -0.103836,-0.08746 -0.114808,-0.103836 l 0.0053,0.0052 z"
       id="path4431" /><g
       style="fill:#000000"
       id="g4630"><path
         id="path4435"
         d="m 10.425717,42.524395 c 0.502958,0.79268 1.213667,0.770816 2.022805,0.568551 0.907488,-0.224129 2.667921,-0.727087 2.667921,-0.727087 l 0.481094,2.454684 c 0.169508,1.219153 0,2.236042 -0.300694,3.050586 l 0,0 c 1.683869,-2.399984 0.442852,-4.231496 0.661494,-5.144469 0.218643,-0.912974 3.739431,-1.771326 4.47749,-2.339877 0.738059,-0.568551 1.268367,-2.126641 1.268367,-2.126641 0,0 -0.738059,1.131696 -1.525332,1.820541 -0.787274,0.688844 -6.904824,2.48752 -8.074762,2.881077 -1.109832,0.371773 -1.634654,-0.355394 -1.683869,-0.431879 l 0.0055,-0.0055 z"
         style="fill:#000000"
         inkscape:connector-curvature="0" /><path
         id="path4437"
         d="m 14.487705,17.283222 c 4.231496,-1.547197 9.239215,-0.716195 12.278908,2.394577 3.619137,3.701188 4.466517,10.441989 -1.858783,17.570941 l 2.132126,7.041495 -1.574467,-6.740801 c 0,0 5.384976,-5.182712 4.778182,-11.819678 -0.601387,-6.642452 -7.292974,-10.813761 -14.088475,-9.004193 -0.601388,0.158536 -1.153561,0.349908 -1.667491,0.557659 z"
         style="fill:#000000"
         inkscape:connector-curvature="0" /></g></g><path
     inkscape:connector-curvature="0"
     style="fill:#fefefe"
     d="m -8.6777018,65.132399 c 0.071079,-0.103836 0.15305,-0.196779 0.2351008,-0.284316 l 0.4045291,0.399123 c -0.065593,0.06559 -0.1257793,0.136672 -0.1804003,0.213237 -0.2897217,0.404529 -0.3881508,0.885623 -0.317072,1.339446 0.065593,0.388151 0.2569651,0.759923 0.5630652,1.038753 l -0.3826649,0.420987 C -8.759673,67.893342 -9.0111522,67.406762 -9.0986888,66.892912 l 0,0 c -0.098429,-0.595902 0.032836,-1.235532 0.4100151,-1.76584 l 0.010972,0.0053 z m -3.7230522,-4.187768 0.40453,0.399123 c -0.262451,0.267857 -0.508445,0.563065 -0.738059,0.874731 -1.186317,1.651032 -1.590926,3.630108 -1.284746,5.488891 0.262451,1.596332 1.044159,3.105286 2.30704,4.247875 l -0.382665,0.420987 c -1.355824,-1.235532 -2.203205,-2.859214 -2.48752,-4.575919 -0.328044,-2.00094 0.103835,-4.133067 1.383175,-5.909799 0.245993,-0.338936 0.508444,-0.656008 0.79268,-0.945809 l 0.0056,0 z m 1.476118,1.454254 0.40453,0.399123 c -0.191373,0.191372 -0.366287,0.404529 -0.530309,0.628737 -0.852866,1.186317 -1.142588,2.607735 -0.923945,3.947181 0.185886,1.148074 0.754437,2.230555 1.656518,3.056072 l -0.382665,0.420987 c -1.005916,-0.912974 -1.629168,-2.115748 -1.836918,-3.384116 -0.245994,-1.481524 0.07656,-3.056072 1.022294,-4.368168 0.180401,-0.251479 0.377259,-0.48658 0.585009,-0.699816 l 0.0055,0 z m 1.2847463,1.268367 0.4045291,0.399123 c -0.1257793,0.12578 -0.2405867,0.267858 -0.3499082,0.415501 -0.5630652,0.781788 -0.7544372,1.722112 -0.6068732,2.602328 0.125779,0.754438 0.4974723,1.470632 1.0933736,2.011833 l -0.3826648,0.420987 c -0.6943308,-0.628737 -1.1262098,-1.465146 -1.2737738,-2.339877 -0.169508,-1.022295 0.0547,-2.115748 0.705223,-3.023235 0.125779,-0.174914 0.2624507,-0.33345 0.4045288,-0.481094 l 0.00557,-0.0056 z"
     id="path4439" /><g
     id="g4441"
     transform="matrix(0.07950652,0,0,0.07950652,-21.672804,38.169114)" /><g
     id="g4443"
     transform="matrix(0.07950652,0,0,0.07950652,-21.672804,38.169114)" /><g
     id="g4445"
     transform="matrix(0.07950652,0,0,0.07950652,-21.672804,38.169114)" /><g
     id="g4447"
     transform="matrix(0.07950652,0,0,0.07950652,-21.672804,38.169114)" /><g
     id="g4449"
     transform="matrix(0.07950652,0,0,0.07950652,-21.672804,38.169114)" /><g
     id="g4451"
     transform="matrix(0.07950652,0,0,0.07950652,-21.672804,38.169114)" /><g
     id="g4453"
     transform="matrix(0.07950652,0,0,0.07950652,-21.672804,38.169114)" /><g
     id="g4455"
     transform="matrix(0.07950652,0,0,0.07950652,-21.672804,38.169114)" /><g
     id="g4457"
     transform="matrix(0.07950652,0,0,0.07950652,-21.672804,38.169114)" /><g
     id="g4459"
     transform="matrix(0.07950652,0,0,0.07950652,-21.672804,38.169114)" /><g
     id="g4461"
     transform="matrix(0.07950652,0,0,0.07950652,-21.672804,38.169114)" /><g
     id="g4463"
     transform="matrix(0.07950652,0,0,0.07950652,-21.672804,38.169114)" /><g
     id="g4465"
     transform="matrix(0.07950652,0,0,0.07950652,-21.672804,38.169114)" /><g
     id="g4467"
     transform="matrix(0.07950652,0,0,0.07950652,-21.672804,38.169114)" /><g
     id="g4469"
     transform="matrix(0.07950652,0,0,0.07950652,-21.672804,38.169114)" /><g
     id="g4658"><path
       id="path4634"
       d="m 33.064211,32.473163 1.574467,-6.740801 c 0,0 -5.384976,-5.182712 -4.778182,-11.819678 0.601387,-6.6424529 7.292974,-10.8137619 14.088475,-9.0041939 6.790017,1.809568 7.916227,7.2492469 7.949063,8.1458419 0.03284,0.891109 -0.803652,3.176365 -0.202265,4.734454 0.601387,1.558089 2.766271,4.001881 2.564006,4.728968 -0.202265,0.727087 -2.061048,0.852866 -2.061048,0.852866 0,0 -0.02186,0.705223 0.224129,0.852867 0.245993,0.147644 0.109322,0.738059 -0.300693,1.060617 -0.40453,0.328044 -1.082482,0.546687 -1.082482,0.546687 0,0 0.781788,0.174914 0.677873,0.727087 -0.09843,0.552173 -0.377259,0.831002 -0.956702,0.852866 -0.579523,0.02735 -0.732574,-0.251479 -0.831003,0.04922 -0.09843,0.300693 -0.164022,0.328044 -0.164022,0.328044 0,0 0.579524,1.497982 0.07657,2.602328 -0.502958,1.104345 -1.284746,1.109831 -2.186827,0.880216 -0.907487,-0.224129 -2.66792,-0.727087 -2.66792,-0.727087 l -0.481094,2.454684 c -0.437366,3.121665 1.36131,4.914855 1.858783,5.346734 -5.210063,-0.202264 -9.922653,-2.367227 -13.410604,-5.773127 0.06011,-0.0547 0.103836,-0.08746 0.114808,-0.103836 l -0.0053,0.0052 z"
       style="fill:#ff7f2a"
       inkscape:connector-curvature="0" /><g
       transform="matrix(-1,0,0,1,60.104167,-11.817072)"
       id="g4636"
       style="fill:#aa4400"><path
         inkscape:connector-curvature="0"
         style="fill:#aa4400"
         d="m 10.425717,42.524395 c 0.502958,0.79268 1.213667,0.770816 2.022805,0.568551 0.907488,-0.224129 2.667921,-0.727087 2.667921,-0.727087 l 0.481094,2.454684 c 0.169508,1.219153 0,2.236042 -0.300694,3.050586 l 0,0 c 1.683869,-2.399984 0.442852,-4.231496 0.661494,-5.144469 0.218643,-0.912974 3.739431,-1.771326 4.47749,-2.339877 0.738059,-0.568551 1.268367,-2.126641 1.268367,-2.126641 0,0 -0.738059,1.131696 -1.525332,1.820541 -0.787274,0.688844 -6.904824,2.48752 -8.074762,2.881077 -1.109832,0.371773 -1.634654,-0.355394 -1.683869,-0.431879 l 0.0055,-0.0055 z"
         id="path4638" /><path
         inkscape:connector-curvature="0"
         style="fill:#aa4400"
         d="m 14.487705,17.283222 c 4.231496,-1.547197 9.239215,-0.716195 12.278908,2.394577 3.619137,3.701188 4.466517,10.441989 -1.858783,17.570941 l 2.132126,7.041495 -1.574467,-6.740801 c 0,0 5.384976,-5.182712 4.778182,-11.819678 -0.601387,-6.642452 -7.292974,-10.813761 -14.088475,-9.004193 -0.601388,0.158536 -1.153561,0.349908 -1.667491,0.557659 z"
         id="path4640" /></g></g></svg>