<?xml version="1.0" encoding="UTF-8" standalone="no"?>
<!-- Generator: Adobe Illustrator 18.0.0, SVG Export Plug-In . SVG Version: 6.00 Build 0)  -->

<svg
   xmlns:dc="http://purl.org/dc/elements/1.1/"
   xmlns:cc="http://creativecommons.org/ns#"
   xmlns:rdf="http://www.w3.org/1999/02/22-rdf-syntax-ns#"
   xmlns:svg="http://www.w3.org/2000/svg"
   xmlns="http://www.w3.org/2000/svg"
   xmlns:sodipodi="http://sodipodi.sourceforge.net/DTD/sodipodi-0.dtd"
   xmlns:inkscape="http://www.inkscape.org/namespaces/inkscape"
   version="1.1"
   id="Capa_1"
   x="0px"
   y="0px"
   viewBox="0 0 58 58"
   style="enable-background:new 0 0 58 58;"
   xml:space="preserve"
   inkscape:version="0.91 r13725"
   sodipodi:docname="gderacz2.svg"
   inkscape:export-filename="/Users/adrian/Desktop/gderacz-v1.png"
   inkscape:export-xdpi="775.86206"
   inkscape:export-ydpi="775.86206"><metadata
     id="metadata47"><rdf:RDF><cc:Work
         rdf:about=""><dc:format>image/svg+xml</dc:format><dc:type
           rdf:resource="http://purl.org/dc/dcmitype/StillImage" /><dc:title /></cc:Work></rdf:RDF></metadata><defs
     id="defs45" /><sodipodi:namedview
     pagecolor="#ffffff"
     bordercolor="#666666"
     borderopacity="1"
     objecttolerance="10"
     gridtolerance="10"
     guidetolerance="10"
     inkscape:pageopacity="0"
     inkscape:pageshadow="2"
     inkscape:window-width="1462"
     inkscape:window-height="914"
     id="namedview43"
     showgrid="false"
     inkscape:zoom="8"
     inkscape:cx="-24.414042"
     inkscape:cy="33.559845"
     inkscape:window-x="20"
     inkscape:window-y="44"
     inkscape:window-maximized="0"
     inkscape:current-layer="Capa_1"
     inkscape:snap-midpoints="true"
     inkscape:snap-smooth-nodes="false"
     inkscape:object-paths="true" /><rect
     style="fill:#ffffff;fill-opacity:1;fill-rule:evenodd;stroke:none"
     id="rect3390"
     width="61.624786"
     height="60.138206"
     x="-2.2497854"
     y="-0.88820815" /><g
     id="g3"
     transform="matrix(0.41101695,0,0,0.41101695,-19.04661,-23.347458)"><path
       style="fill:#049cff"
       d="m 23.936,54.07 c 0.539,-0.12 0.879,-0.654 0.76,-1.193 -0.121,-0.539 -0.663,-0.874 -1.193,-0.759 l -7.252,1.614 c -0.003,-0.002 -0.007,-0.003 -0.01,-0.005 l -0.171,0.045 -0.326,0.073 c -0.027,0.006 -0.047,0.024 -0.073,0.032 L 0,58 4.988,43.037 C 2.457,38.78 1,33.812 1,28.5 1,12.76 13.76,0 29.5,0 45.24,0 58,12.76 58,28.5 58,44.24 45.24,57 29.5,57 25.897,57 22.452,56.327 19.279,55.106 l 4.657,-1.036 z"
       id="path5"
       inkscape:connector-curvature="0" /><path
       style="fill:#ffffff"
       d="m 30,22 -14,0 c -0.552,0 -1,-0.448 -1,-1 0,-0.552 0.448,-1 1,-1 l 14,0 c 0.552,0 1,0.448 1,1 0,0.552 -0.448,1 -1,1 z"
       id="path7"
       inkscape:connector-curvature="0" /><path
       style="fill:#ffffff"
       d="m 43,30 -27,0 c -0.552,0 -1,-0.448 -1,-1 0,-0.552 0.448,-1 1,-1 l 27,0 c 0.552,0 1,0.448 1,1 0,0.552 -0.448,1 -1,1 z"
       id="path9"
       inkscape:connector-curvature="0" /><path
       style="fill:#ffffff"
       d="m 43,38 -27,0 c -0.552,0 -1,-0.448 -1,-1 0,-0.552 0.448,-1 1,-1 l 27,0 c 0.552,0 1,0.448 1,1 0,0.552 -0.448,1 -1,1 z"
       id="path11"
       inkscape:connector-curvature="0" /></g><g
     id="g13" /><g
     id="g15" /><g
     id="g17" /><g
     id="g19" /><g
     id="g21" /><g
     id="g23" /><g
     id="g25" /><g
     id="g27" /><g
     id="g29" /><g
     id="g31" /><g
     id="g33" /><g
     id="g35" /><g
     id="g37" /><g
     id="g39" /><g
     id="g41" /><path
     inkscape:connector-curvature="0"
     style="fill:#fefefe"
     d="m -8.6777018,65.132399 c 0.071079,-0.103836 0.15305,-0.196779 0.2351008,-0.284316 l 0.4045291,0.399123 c -0.065593,0.06559 -0.1257793,0.136672 -0.1804003,0.213237 -0.2897217,0.404529 -0.3881508,0.885623 -0.317072,1.339446 0.065593,0.388151 0.2569651,0.759923 0.5630652,1.038753 l -0.3826649,0.420987 C -8.759673,67.893342 -9.0111522,67.406762 -9.0986888,66.892912 l 0,0 c -0.098429,-0.595902 0.032836,-1.235532 0.4100151,-1.76584 l 0.010972,0.0053 z m -3.7230522,-4.187768 0.40453,0.399123 c -0.262451,0.267857 -0.508445,0.563065 -0.738059,0.874731 -1.186317,1.651032 -1.590926,3.630108 -1.284746,5.488891 0.262451,1.596332 1.044159,3.105286 2.30704,4.247875 l -0.382665,0.420987 c -1.355824,-1.235532 -2.203205,-2.859214 -2.48752,-4.575919 -0.328044,-2.00094 0.103835,-4.133067 1.383175,-5.909799 0.245993,-0.338936 0.508444,-0.656008 0.79268,-0.945809 l 0.0056,0 z m 1.476118,1.454254 0.40453,0.399123 c -0.191373,0.191372 -0.366287,0.404529 -0.530309,0.628737 -0.852866,1.186317 -1.142588,2.607735 -0.923945,3.947181 0.185886,1.148074 0.754437,2.230555 1.656518,3.056072 l -0.382665,0.420987 c -1.005916,-0.912974 -1.629168,-2.115748 -1.836918,-3.384116 -0.245994,-1.481524 0.07656,-3.056072 1.022294,-4.368168 0.180401,-0.251479 0.377259,-0.48658 0.585009,-0.699816 l 0.0055,0 z m 1.2847463,1.268367 0.4045291,0.399123 c -0.1257793,0.12578 -0.2405867,0.267858 -0.3499082,0.415501 -0.5630652,0.781788 -0.7544372,1.722112 -0.6068732,2.602328 0.125779,0.754438 0.4974723,1.470632 1.0933736,2.011833 l -0.3826648,0.420987 c -0.6943308,-0.628737 -1.1262098,-1.465146 -1.2737738,-2.339877 -0.169508,-1.022295 0.0547,-2.115748 0.705223,-3.023235 0.125779,-0.174914 0.2624507,-0.33345 0.4045288,-0.481094 l 0.00557,-0.0056 z"
     id="path4439" /><g
     id="g4441"
     transform="matrix(0.07950652,0,0,0.07950652,-21.672804,38.169114)" /><g
     id="g4443"
     transform="matrix(0.07950652,0,0,0.07950652,-21.672804,38.169114)" /><g
     id="g4445"
     transform="matrix(0.07950652,0,0,0.07950652,-21.672804,38.169114)" /><g
     id="g4447"
     transform="matrix(0.07950652,0,0,0.07950652,-21.672804,38.169114)" /><g
     id="g4449"
     transform="matrix(0.07950652,0,0,0.07950652,-21.672804,38.169114)" /><g
     id="g4451"
     transform="matrix(0.07950652,0,0,0.07950652,-21.672804,38.169114)" /><g
     id="g4453"
     transform="matrix(0.07950652,0,0,0.07950652,-21.672804,38.169114)" /><g
     id="g4455"
     transform="matrix(0.07950652,0,0,0.07950652,-21.672804,38.169114)" /><g
     id="g4457"
     transform="matrix(0.07950652,0,0,0.07950652,-21.672804,38.169114)" /><g
     id="g4459"
     transform="matrix(0.07950652,0,0,0.07950652,-21.672804,38.169114)" /><g
     id="g4461"
     transform="matrix(0.07950652,0,0,0.07950652,-21.672804,38.169114)" /><g
     id="g4463"
     transform="matrix(0.07950652,0,0,0.07950652,-21.672804,38.169114)" /><g
     id="g4465"
     transform="matrix(0.07950652,0,0,0.07950652,-21.672804,38.169114)" /><g
     id="g4467"
     transform="matrix(0.07950652,0,0,0.07950652,-21.672804,38.169114)" /><g
     id="g4469"
     transform="matrix(0.07950652,0,0,0.07950652,-21.672804,38.169114)" /><g
     id="g3378"
     transform="matrix(1.3400894,0,0,1.3400894,-16.147931,-1.7630407)"><g
       transform="translate(4.1542523,-2.2097087)"
       id="g4718"><path
         id="path4706"
         d="m 25.820502,34.330161 c 0,0 4.62608,-4.45232 4.1048,-10.153948 -0.516634,-5.706343 -6.265186,-9.289795 -12.103007,-7.735247 -5.833111,1.554548 -6.800605,6.227622 -6.828814,6.997861 -0.02821,0.765526 0.690395,2.728725 0.17376,4.067234 -0.516634,1.33851 -2.3764245,3.437902 -2.2026644,4.062522 0.1737601,0.62462 1.7705874,0.732673 1.7705874,0.732673 0,0 0.01878,0.605837 -0.192543,0.732674 -0.211325,0.126837 -0.09392,0.634045 0.258317,0.911146 0.34752,0.281813 0.92993,0.469643 0.92993,0.469643 0,0 -0.671612,0.150264 -0.582342,0.62462 0.08456,0.474356 0.324093,0.71389 0.821876,0.732673 0.497851,0.0235 0.629333,-0.216039 0.713891,0.04228 0.08456,0.258317 0.140906,0.281813 0.140906,0.281813 0,0 -0.497852,1.286874 -0.06578,2.235586 0.432077,0.948711 1.103689,0.953424 1.878641,0.756169 0.779596,-0.192543 2.291934,-0.62462 2.291934,-0.62462 2.10039,3.807001 8.518632,5.336537 11.080159,5.159936 0.04784,-0.0033 -2.476055,-5.38966 -2.189652,-9.293018 z"
         style="fill:#4d4d4d"
         inkscape:connector-curvature="0"
         sodipodi:nodetypes="ccccsscsccccscsccsc" /><g
         transform="matrix(0.85907152,0,0,0.85907152,3.9438259,2.072512)"
         id="g4708"
         style="fill:#1a1a1a"><path
           inkscape:connector-curvature="0"
           style="fill:#000000"
           d="m 10.425717,42.524395 c 0.502958,0.79268 1.213667,0.770816 2.022805,0.568551 0.907488,-0.224129 2.697933,-0.683642 2.697933,-0.683642 0.175158,0.465529 1.811921,2.662584 3.57856,3.421541 -0.776898,-0.538602 -2.082894,-1.292748 -3.397524,-3.469461 0,0 4.370277,-1.40605 5.108336,-1.974601 0.738059,-0.568551 1.268367,-2.126641 1.268367,-2.126641 0,0 -0.738059,1.131696 -1.525332,1.820541 -0.787274,0.688844 -6.904824,2.48752 -8.074762,2.881077 -1.109832,0.371773 -1.634654,-0.355394 -1.683869,-0.431879 l 0.0055,-0.0055 z"
           id="path4710"
           sodipodi:nodetypes="cccccscscccc" /><path
           inkscape:connector-curvature="0"
           style="fill:#000000"
           d="m 14.487705,17.283222 c 4.231496,-1.547197 9.239215,-0.716195 12.278908,2.394577 3.619137,3.701188 4.466517,10.441989 -1.858783,17.570941 0,0 0.416787,2.610851 0.716462,3.897265 0.254952,1.094429 0.91848,3.243667 0.91848,3.243667 -0.5394,-2.262138 -0.984206,-4.514961 -1.077283,-6.840238 0,0 5.384976,-5.182712 4.778182,-11.819678 -0.601387,-6.642452 -7.292974,-10.813761 -14.088475,-9.004193 -0.601388,0.158536 -1.153561,0.349908 -1.667491,0.557659 z"
           id="path4712"
           sodipodi:nodetypes="cccaccccc" /></g></g><g
       id="g4658"><path
         sodipodi:nodetypes="ccccsscsccccscsccsc"
         inkscape:connector-curvature="0"
         style="fill:#5599ff"
         d="m 34.638678,25.732362 c 0,0 -5.384976,-5.182712 -4.778182,-11.819678 0.601387,-6.6424529 7.292974,-10.8137619 14.088475,-9.0041939 6.790017,1.809568 7.916227,7.2492469 7.949063,8.1458419 0.03284,0.891109 -0.803652,3.176365 -0.202265,4.734454 0.601387,1.558089 2.766271,4.001881 2.564006,4.728968 -0.202265,0.727087 -2.061048,0.852866 -2.061048,0.852866 0,0 -0.02186,0.705223 0.224129,0.852867 0.245993,0.147644 0.109322,0.738059 -0.300693,1.060617 -0.40453,0.328044 -1.082482,0.546687 -1.082482,0.546687 0,0 0.781788,0.174914 0.677873,0.727087 -0.09843,0.552173 -0.377259,0.831002 -0.956702,0.852866 -0.579523,0.02735 -0.732574,-0.251479 -0.831003,0.04922 -0.09843,0.300693 -0.164022,0.328044 -0.164022,0.328044 0,0 0.579524,1.497982 0.07657,2.602328 -0.502958,1.104345 -1.284746,1.109831 -2.186827,0.880216 -0.907487,-0.224129 -2.66792,-0.727087 -2.66792,-0.727087 -2.444954,4.43153 -9.916092,6.211982 -12.897831,6.00641 -0.05569,-0.0038 2.882246,-6.273819 2.548859,-10.817513 z"
         id="path4634" /><g
         style="fill:#aa4400"
         id="g4636"
         transform="matrix(-1,0,0,1,60.104167,-11.817072)"><path
           sodipodi:nodetypes="cccccscscccc"
           id="path4638"
           d="m 10.425717,42.524395 c 0.502958,0.79268 1.213667,0.770816 2.022805,0.568551 0.907488,-0.224129 2.697933,-0.683642 2.697933,-0.683642 0.175158,0.465529 1.811921,2.662584 3.57856,3.421541 -0.776898,-0.538602 -2.082894,-1.292748 -3.397524,-3.469461 0,0 4.370277,-1.40605 5.108336,-1.974601 0.738059,-0.568551 1.268367,-2.126641 1.268367,-2.126641 0,0 -0.738059,1.131696 -1.525332,1.820541 -0.787274,0.688844 -6.904824,2.48752 -8.074762,2.881077 -1.109832,0.371773 -1.634654,-0.355394 -1.683869,-0.431879 l 0.0055,-0.0055 z"
           style="fill:#003380"
           inkscape:connector-curvature="0" /><path
           sodipodi:nodetypes="cccaccccc"
           id="path4640"
           d="m 14.487705,17.283222 c 4.231496,-1.547197 9.239215,-0.716195 12.278908,2.394577 3.619137,3.701188 4.466517,10.441989 -1.858783,17.570941 0,0 0.416787,2.610851 0.716462,3.897265 0.254952,1.094429 0.91848,3.243667 0.91848,3.243667 -0.5394,-2.262138 -0.984206,-4.514961 -1.077283,-6.840238 0,0 5.384976,-5.182712 4.778182,-11.819678 -0.601387,-6.642452 -7.292974,-10.813761 -14.088475,-9.004193 -0.601388,0.158536 -1.153561,0.349908 -1.667491,0.557659 z"
           style="fill:#003380"
           inkscape:connector-curvature="0" /></g></g></g></svg>